<svg width="204" height="58" fill="none" xmlns="http://www.w3.org/2000/svg"><path d="M108.685 3.467l-5.801 12.427-5.809-12.427h11.61zm58.782 24.585c0-1.995-1.629-3.606-3.628-3.606-2 0-3.629 1.619-3.629 3.606 0 1.995 1.629 3.605 3.629 3.605 1.999 0 3.628-1.61 3.628-3.605zM10.516 21.241a4.093 4.093 0 00-2.271-.711c-.593-.017-3.226-.025-3.226-.025l-.024 5.396s2.805.025 3.217.009a4.793 4.793 0 001.58-.303c2.032-.769 2.476-3.18.724-4.366z" fill="#FFCD1C"/><path d="M157.025 5.862L153.907 0h-2.074v8.568h1.506V2.085l3.456 6.483h1.736V0h-1.506v5.862zm6.007-4.014c-.93 0-1.687.319-2.238.94-.543.621-.823 1.464-.823 2.502 0 1.046.28 1.888.823 2.502.551.621 1.308.94 2.238.94.922 0 1.679-.319 2.23-.94.551-.614.823-1.456.823-2.502 0-1.047-.28-1.889-.823-2.502-.551-.621-1.3-.94-2.23-.94zm1.506 3.45c0 .703-.14 1.235-.412 1.578-.263.327-.625.49-1.094.49-.477 0-.839-.163-1.103-.498-.271-.344-.411-.875-.411-1.578 0-.728.14-1.26.411-1.594.264-.328.626-.483 1.103-.483s.831.155 1.094.483c.272.343.412.874.412 1.602zm6.253-3.45a2.84 2.84 0 00-1.152.245 4.585 4.585 0 00-.65.352v-.426h-1.522v6.55h1.522V3.923c.23-.171.477-.31.732-.425.543-.237 1.062-.212 1.341-.098a.643.643 0 01.288.245c.066.107.116.27.149.475.032.229.049.482.049.752v3.695h1.522V4.39c0-.8-.197-1.43-.576-1.864-.403-.45-.971-.678-1.703-.678zm7.759 2.207h-3.9v1.472h3.9V4.055zm4.806.663a63.03 63.03 0 00-.601-.123 8.276 8.276 0 01-.625-.13c-.379-.09-.56-.189-.642-.263-.099-.081-.14-.204-.14-.376 0-.196.082-.327.263-.425.436-.245 1.152-.245 1.852 0 .345.123.65.278.897.45l.123.049h.329V2.42l-.132-.065a4.175 4.175 0 00-.987-.344c-.815-.188-1.637-.188-2.296.025a2.544 2.544 0 00-.864.45 1.906 1.906 0 00-.715 1.487c0 .45.131.843.395 1.161.263.32.674.548 1.267.704.197.049.419.098.658.147.23.04.42.082.559.114.461.107.626.205.683.262.083.073.124.196.124.36 0 .22-.082.368-.255.474-.395.229-1.185.278-1.991-.017a3.917 3.917 0 01-1.021-.54l-.123-.048h-.329v1.545l.14.065c.263.131.592.254.995.368a4.73 4.73 0 001.308.172c.848 0 1.539-.196 2.041-.58.518-.401.79-.924.79-1.554 0-.507-.156-.916-.461-1.234-.304-.327-.716-.532-1.242-.654zm4.484-4.44h-1.522v1.741h-.692v1.35h.692v2.975c0 .794.189 1.39.559 1.775.37.384.905.572 1.596.572.19 0 .395-.016.642-.05a4.65 4.65 0 00.658-.13l.181-.049V7.358l-.057-.245h-.247l-.09.016c-.075.033-.198.066-.363.115-.156.04-.312.065-.46.065-.313 0-.461-.04-.535-.073a.497.497 0 01-.222-.213 1.145 1.145 0 01-.124-.4 8.418 8.418 0 01-.024-.728V3.368h2.122V2.02h-2.122V.278h.008zm5.776 1.57c-.93 0-1.687.319-2.238.94-.543.621-.823 1.464-.823 2.502 0 1.046.28 1.888.823 2.502.551.621 1.308.94 2.238.94.922 0 1.679-.319 2.23-.94.551-.614.823-1.456.823-2.502 0-1.047-.28-1.889-.823-2.502-.551-.621-1.3-.94-2.23-.94zm1.506 3.45c0 .703-.14 1.243-.412 1.578-.263.327-.617.49-1.094.49-.477 0-.839-.163-1.103-.498-.271-.344-.411-.875-.411-1.578 0-.728.14-1.26.411-1.594.264-.328.626-.483 1.103-.483s.831.155 1.094.483c.28.343.412.874.412 1.602zm8.129-2.518c-.461-.613-1.103-.924-1.917-.924-.42 0-.823.082-1.193.253a4.79 4.79 0 00-.568.311v-.4h-1.522v8.789h1.522V8.413c.156.065.321.123.469.164.609.163 1.407.163 2.057-.131.354-.164.666-.393.93-.679.28-.302.502-.678.65-1.12.148-.433.23-.916.23-1.43.008-1.023-.214-1.848-.658-2.437zm-.889 2.469c0 .687-.14 1.21-.419 1.545-.272.327-.65.483-1.152.483-.247 0-.469-.025-.659-.066a3.776 3.776 0 01-.559-.188v-3.14c.23-.163.469-.294.708-.4.271-.115.534-.172.789-.172.437 0 .749.14.955.442.222.319.337.817.337 1.496zm-68.449 35.255c-4.583-.066-8.475-1.587-11.224-5.397-4.393-6.107-1.95-15.002 4.937-18.15 5.612-2.56 12.474-1.382 16.44 2.82 5.85 6.206 3.431 16.639-4.55 19.688a15.612 15.612 0 01-5.603 1.039zm.016-18.323c-3.587-.016-6.212 2.453-6.229 5.846-.016 3.377 2.617 5.911 6.163 5.928 3.555.016 6.204-2.478 6.229-5.862.016-3.402-2.575-5.895-6.163-5.912zm29.918 18.314c-5.011-.139-9.183-1.88-11.799-6.369-3.547-6.083-1.029-14.013 5.381-17.112 5.274-2.55 12.145-1.537 16.217 2.363 5.538 5.298 5.028 16.32-4.105 20.055-1.819.744-3.719 1.063-5.694 1.063zm-.017-18.322c-3.579.008-6.171 2.494-6.154 5.911.016 3.385 2.674 5.887 6.22 5.862 3.53-.032 6.221-2.6 6.188-5.927-.025-3.369-2.683-5.854-6.254-5.846zm24.109-6.263h-6.731v24.528s8.047.041 8.047.057c1.563-.016 3.119-.09 4.674-.376 8.697-1.61 12.885-11.871 7.751-19.066-2.395-3.352-5.842-4.726-9.8-5.069-1.317-.114-3.958-.09-3.941-.074zm8.31 13.082c-.239 2.175-1.53 3.532-3.538 4.276-1.045.384-2.131.417-3.225.441h-.963V22.615h1.44c1.563.008 2.6.319 3.76.964 2.123 1.186 2.773 3.124 2.526 5.413zM22.463 15.771H19.96v24.692h2.502V15.77zM87.44 40.47h2.708L78.546 15.519v.033-.033L66.936 40.47h2.707l1.868-3.99h14.07l1.86 3.99zm-14.769-6.483l5.875-12.566v-.033.033l5.875 12.566H72.67zm-7.693-18.216H47.443v2.486h13.174c-1.53 2.592-13.182 22.214-13.174 22.214h.486l-.017.033h17.074v-2.486H51.878l13.1-22.247zm-20.637 0H26.807v2.486H39.98C38.45 20.849 26.8 40.47 26.807 40.47h.486l-.017.033H44.35v-2.486H31.242l13.1-22.247zm-34.361.131c-1.3-.13-3.208-.13-4.442-.122H0v24.69h2.501v-9.32h1.07v.008c.156.009.403.009.815-.008.172-.008.329 0 .493-.008h2.897v-.008a19.351 19.351 0 001.637-.09c4.122-.425 7.183-3.663 7.183-7.53 0-4.341-3.06-7.26-6.615-7.612zm.963 12.158a7.737 7.737 0 01-2.772.597c-.733.024-5.67.008-5.67.008v-10.4s4.625 0 5.67.016c1.357.025 2.674.376 4.007 1.358 3.093 2.256 2.328 6.908-1.235 8.42zm102.07-12.256l-5.751 12.591-4.377-9.002-4.386 9.002-5.751-12.59h-7.472l11.462 24.699h2.263l3.884-8.242 3.883 8.242h2.263l11.462-24.7h-7.48zM5.01 51.149c.157-.123.297-.262.412-.426.214-.302.33-.662.33-1.079 0-.368-.075-.687-.223-.956-.148-.278-.395-.5-.724-.67a2.85 2.85 0 00-.88-.287 10.09 10.09 0 00-1.309-.065H.066v8.2H3.06c.56 0 1.029-.049 1.4-.155a2.876 2.876 0 001.044-.532c.272-.212.494-.482.658-.81.165-.326.247-.702.247-1.12 0-.588-.172-1.095-.51-1.487a2.277 2.277 0 00-.888-.613zm-3.422.972h1.374c.329 0 .617.017.839.041.206.025.387.074.518.14.198.106.338.228.404.36.074.146.115.359.115.629 0 .229-.033.417-.107.556-.074.139-.19.261-.346.376-.156.106-.362.18-.609.22-.28.041-.633.066-1.07.066H1.589V52.12zm2.517-1.855a.609.609 0 01-.255.286c-.14.09-.28.139-.444.171a4.2 4.2 0 01-.732.05H1.588V49.03h.987c.33 0 .609.008.84.033.197.016.361.065.493.139a.492.492 0 01.206.204.82.82 0 01.065.368c.009.196-.024.36-.074.49zm7.373 2.093c.173-.189.337-.45.485-.802.107-.245.223-.417.346-.507.107-.081.28-.122.494-.122h.674v-1.325h-.69c-.56 0-.996.115-1.309.335-.304.221-.56.548-.757.973l-.14.311a4.49 4.49 0 01-.131.278 1.223 1.223 0 01-.412.466.975.975 0 01-.411.123v-2.486H8.154v6.271h1.473v-2.649h.18l2.42 2.65h1.942l-2.97-3.263c.09-.074.188-.155.279-.253zm6.204 1.136l-1.63-3.9h-1.595l2.419 5.748L15.682 58h1.589l3.612-8.405h-1.564l-1.637 3.9zm8.442-3.884a3.868 3.868 0 00-1.061-.147c-.963 0-1.728.303-2.288.908-.56.597-.839 1.39-.839 2.37 0 .532.074 1.007.222 1.415.156.41.37.76.65 1.03s.617.483 1.004.614c.378.13.798.196 1.25.196.305 0 .61-.041.914-.115a6.25 6.25 0 001.078-.4l.14-.066V54.19l-.058-.245h-.329l-.066.057c-.05.04-.14.106-.271.188-.132.09-.264.163-.387.22-.148.074-.32.14-.502.18-.18.05-.37.074-.551.074-.51 0-.889-.155-1.16-.482-.28-.335-.42-.818-.42-1.447 0-.63.14-1.12.42-1.456.271-.327.65-.49 1.16-.49.263 0 .543.057.83.163.289.107.593.278.898.507l.123.05h.33v-1.472l-.132-.066a6.96 6.96 0 00-.955-.36zm6.624 2.331H30.32v-2.347h-1.473v6.271h1.473v-2.6h2.427v2.6h1.464v-6.27h-1.464v2.346zm7.948-1.995a2.325 2.325 0 00-.88-.385c-.593-.13-1.424-.147-2.239-.008a8.53 8.53 0 00-.855.18l-.181.05v1.177l.05.245h.246l.09-.017c.321-.122.642-.22.947-.286a3.859 3.859 0 011.382-.057c.165.025.304.066.411.13.107.058.19.14.24.246a.74.74 0 01.081.352 21.64 21.64 0 00-1.382.114c-.518.057-.97.172-1.35.335a2.19 2.19 0 00-.913.72c-.214.31-.329.72-.329 1.202 0 .605.206 1.103.625 1.496.412.384.914.58 1.506.58a3.146 3.146 0 001.407-.302c.14-.066.288-.147.436-.254v.393h1.465v-4.17c0-.409-.066-.752-.198-1.038a1.659 1.659 0 00-.559-.703zm-.691 2.902v1.227a4.26 4.26 0 01-.65.384c-.247.114-.535.18-.84.18-.353 0-.608-.066-.765-.197-.148-.122-.214-.302-.214-.564 0-.229.058-.392.19-.515a1.29 1.29 0 01.576-.31c.222-.058.526-.107.913-.14.288-.024.551-.049.79-.065zm5.208-3.18a2.12 2.12 0 00-.806.302 1.987 1.987 0 00-.6.597c-.165.254-.248.556-.248.916 0 .515.132.948.404 1.275.205.254.502.45.88.597l-2.065 2.51h1.785l1.802-2.297h.79v2.297h1.473v-6.27h-2.485c-.337 0-.65.024-.93.073zm-.09 1.529a.474.474 0 01.197-.205.945.945 0 01.305-.114 4.01 4.01 0 01.543-.025h.987v1.464h-.962c-.206 0-.404-.017-.568-.05a.812.812 0 01-.362-.155.509.509 0 01-.173-.22 1.176 1.176 0 01-.05-.385c.017-.106.034-.212.083-.31zm10.302 4.668h1.464V50.92h2.428v4.946h1.472v-6.27h-5.364v6.27zm9.059-2.518v-3.753h-1.457v6.271h1.26l2.673-3.81v3.81h1.465v-6.27h-1.292l-2.65 3.752zm11.494-3.753h-1.472v4.947h-2.378v-4.947h-1.465v6.271h4.616v1.39h1.399v-2.714h-.7v-4.947zm7.685 0h-1.472v4.947h-2.378v-4.947H78.34v6.271h4.624v1.39h1.399v-2.714h-.7v-4.947zm6.599.352a2.325 2.325 0 00-.88-.385c-.593-.13-1.424-.147-2.238-.008a8.53 8.53 0 00-.856.18l-.18.05v1.177l.048.245h.247l.09-.017c.322-.122.643-.22.947-.286a3.859 3.859 0 011.382-.057c.165.025.305.066.412.13.107.058.19.14.239.246a.74.74 0 01.082.352c-.486.024-.955.065-1.383.114-.518.057-.97.172-1.349.335-.387.172-.7.417-.913.72-.214.31-.33.72-.33 1.202 0 .605.206 1.103.626 1.496.411.384.913.58 1.506.58a3.146 3.146 0 001.406-.302c.14-.066.289-.147.437-.254v.393h1.464v-4.17c0-.409-.066-.752-.197-1.038a1.599 1.599 0 00-.56-.703zm-.69 2.902v1.227a4.26 4.26 0 01-.65.384c-.248.114-.536.18-.84.18-.354 0-.609-.066-.765-.197-.148-.122-.214-.302-.214-.564 0-.229.057-.392.189-.515a1.29 1.29 0 01.576-.31c.222-.058.527-.107.913-.14.296-.024.56-.049.79-.065zm7.24-1.308h-3.744v1.423h3.744V51.54zm2.074 4.325h1.473V50.92h2.419v4.946h1.472v-6.27h-5.364v6.27zm10.745-6.426c-.403 0-.79.082-1.143.237a4.21 4.21 0 00-.535.286v-.368h-1.473V58h1.473v-2.281c.148.065.296.114.436.155.584.156 1.349.156 1.975-.122.337-.156.641-.377.888-.655.272-.294.478-.654.626-1.07.14-.418.214-.875.214-1.366 0-.981-.214-1.774-.634-2.338-.428-.589-1.045-.883-1.827-.883zm.971 3.246c0 .654-.131 1.152-.403 1.471-.263.311-.617.458-1.086.458a2.81 2.81 0 01-.625-.065 3.54 3.54 0 01-.527-.172v-2.992a3.33 3.33 0 01.667-.376c.255-.107.51-.164.757-.164.411 0 .707.13.905.409.205.31.312.793.312 1.43zm7.578-2.739a2.326 2.326 0 00-.88-.385c-.593-.13-1.424-.147-2.238-.008a8.54 8.54 0 00-.856.18l-.181.05v1.177l.05.245h.246l.091-.017c.321-.122.642-.22.946-.286a3.857 3.857 0 011.382-.057c.165.025.305.066.412.13a.528.528 0 01.238.246c.05.09.083.213.083.352-.486.024-.955.065-1.383.114a4.713 4.713 0 00-1.349.335 2.134 2.134 0 00-.913.72c-.214.31-.329.72-.329 1.202 0 .605.213 1.103.625 1.496.411.384.913.58 1.506.58.304 0 .576-.032.806-.09.222-.057.428-.13.601-.212.14-.066.288-.147.436-.254v.393h1.464v-4.17c0-.409-.065-.752-.189-1.038a1.678 1.678 0 00-.568-.703zm-.691 2.902v1.227c-.197.147-.419.27-.65.384a2.01 2.01 0 01-.839.18c-.354 0-.609-.066-.765-.197-.148-.122-.214-.302-.214-.564 0-.229.057-.392.189-.515a1.29 1.29 0 01.576-.31c.222-.058.527-.107.913-.14.296-.024.56-.049.79-.065zm8.031-.466c.115-.09.222-.204.321-.319.198-.253.296-.556.296-.9a1.66 1.66 0 00-.181-.768 1.402 1.402 0 00-.584-.547 2.053 2.053 0 00-.699-.221 7.842 7.842 0 00-1.012-.05h-2.494v6.272h2.65c.452 0 .815-.041 1.103-.115.287-.081.559-.212.806-.392.23-.164.411-.376.543-.63a1.83 1.83 0 00.197-.858c0-.45-.131-.818-.403-1.104a2.724 2.724 0 00-.543-.368zm-.568 1.496a.611.611 0 01-.074.32.637.637 0 01-.255.228 1.218 1.218 0 01-.452.14c-.206.024-.494.04-.872.04h-.683v-1.406h1.012c.263 0 .469.008.617.016a.893.893 0 01.337.09c.214.098.28.18.296.22.05.082.074.205.074.352zm-.362-2.24a.483.483 0 01-.181.188.697.697 0 01-.279.107 4.059 4.059 0 01-.535.024h-.979v-1.096h.773c.263 0 .486 0 .667.017.148.008.279.04.395.098a.313.313 0 01.139.13c.033.066.05.14.05.221a.846.846 0 01-.05.311zm5.176 1.709v-3.753h-1.465v6.271h1.259l2.683-3.81v3.81h1.456v-6.27h-1.292l-2.641 3.752zm6.829-2.404c-.016.384-.024.72-.041 1.006-.033.76-.107 1.34-.206 1.733-.098.368-.213.621-.37.769a.205.205 0 01-.115.065.917.917 0 01-.313.025c-.057 0-.107-.009-.189-.009h-.247v1.333h.247c.033 0 .107 0 .214.008.115 0 .206.008.263.008.198 0 .387-.032.552-.09.172-.065.329-.155.477-.278a3.36 3.36 0 00.362-.392 2.42 2.42 0 00.313-.58c.098-.246.172-.548.23-.908.058-.352.099-.818.123-1.406.009-.213.025-.458.033-.72l.025-.597h1.695v4.971h1.473v-6.27h-4.493l-.033 1.332zm11.207 1.349c-.272-.196-.543-.327-.823-.376a5.93 5.93 0 00-1.062-.074h-1.077v-2.256h-1.473v6.27h2.526c.436 0 .79-.04 1.069-.114a2.45 2.45 0 00.815-.408c.222-.164.403-.376.535-.646.131-.262.197-.556.197-.867 0-.319-.057-.605-.173-.867a1.739 1.739 0 00-.534-.662zm-.798 1.554c0 .147-.025.27-.066.36a.602.602 0 01-.214.22 1.115 1.115 0 01-.403.14c-.181.024-.436.04-.774.04h-.699v-1.48h.724c.337 0 .6.008.773.025.148.016.28.057.395.122a.505.505 0 01.206.213c.033.098.058.22.058.36zm7.15-1.905h-2.427v-2.347h-1.465v6.271h1.465v-2.6h2.427v2.6h1.473v-6.27h-1.473v2.346zm7.948-1.995a2.326 2.326 0 00-.88-.385c-.593-.13-1.424-.147-2.238-.008a8.477 8.477 0 00-.856.18l-.181.05v1.177l.049.245h.247l.091-.017c.321-.122.642-.22.946-.286a3.857 3.857 0 011.382-.057c.165.025.305.066.412.13a.528.528 0 01.238.246c.05.09.083.213.083.352-.486.024-.955.065-1.383.114a4.713 4.713 0 00-1.349.335c-.395.172-.7.417-.913.72-.214.31-.33.72-.33 1.202 0 .605.214 1.103.626 1.496.411.384.913.58 1.505.58.305 0 .576-.032.807-.09.222-.057.428-.13.6-.212.14-.066.288-.147.437-.254v.393h1.464v-4.17c0-.409-.066-.752-.189-1.038a1.678 1.678 0 00-.568-.703zm-.691 2.902v1.227c-.197.147-.42.27-.65.384a2.01 2.01 0 01-.839.18c-.354 0-.609-.066-.765-.197-.149-.122-.214-.302-.214-.564 0-.229.057-.392.189-.515a1.29 1.29 0 01.576-.31c.222-.058.526-.107.913-.14.296-.024.56-.049.79-.065zm5.209-3.18a2.122 2.122 0 00-.807.302 1.987 1.987 0 00-.6.597c-.165.254-.247.556-.247.916 0 .515.131.948.403 1.275.206.254.502.45.88.597l-2.065 2.51h1.786l1.802-2.297h.789v2.297h1.473v-6.27h-2.485c-.329 0-.641.024-.929.073zm1.95 1.193v1.464h-.963a3 3 0 01-.568-.05.814.814 0 01-.362-.155.517.517 0 01-.173-.22 1.205 1.205 0 01-.049-.385c0-.114.025-.22.074-.31a.432.432 0 01.198-.205.945.945 0 01.304-.114c.099-.016.288-.025.543-.025h.996zm8.261 5.004h1.472V50.92h2.419v4.946h1.473v-6.27h-5.364v6.27zm10.268-6.426c-.913 0-1.662.302-2.23.907-.559.597-.847 1.415-.847 2.42 0 1.022.296 1.824.889 2.388.584.564 1.407.85 2.435.85.395 0 .782-.049 1.152-.147a7.846 7.846 0 001.045-.36l.148-.065v-1.227l-.049-.245h-.338l-.074.066c-.148.13-.411.27-.781.416-.65.254-1.333.278-1.852.107a1.627 1.627 0 01-.559-.32 1.53 1.53 0 01-.379-.555 1.862 1.862 0 01-.131-.597h4.278v-.769c0-.899-.238-1.61-.707-2.109-.477-.507-1.144-.76-2-.76zm1.243 2.404h-2.79c.066-.287.206-.524.412-.728.263-.262.617-.393 1.078-.393.452 0 .773.115.987.344.173.188.28.45.313.776zm6.804.613c-.156.04-.337.073-.526.106a5.19 5.19 0 01-.741.065c-.321 0-.502-.04-.592-.081a.585.585 0 01-.272-.197.777.777 0 01-.131-.351 3.53 3.53 0 01-.042-.556v-1.848h-1.472v2.347c0 .645.189 1.152.576 1.504.378.343.913.523 1.596.523.354 0 .691-.032.995-.09.198-.04.404-.09.618-.147v2.142h1.472v-6.27h-1.472v2.853h-.009zm8.681.507a1.631 1.631 0 00-.535-.67c-.271-.197-.543-.328-.822-.377a5.93 5.93 0 00-1.062-.074h-1.078v-2.256h-1.473v6.27h2.526c.437 0 .79-.04 1.07-.114a2.45 2.45 0 00.815-.408c.222-.164.403-.376.535-.646.131-.262.197-.556.197-.867 0-.302-.058-.597-.173-.858zm-1.333.883c0 .147-.024.27-.066.36a.602.602 0 01-.214.22 1.102 1.102 0 01-.403.14c-.181.024-.436.04-.773.04h-.7v-1.48h.725c.337 0 .6.008.773.025.148.016.28.057.395.122a.505.505 0 01.206.213c.041.098.057.22.057.36z" fill="#fff"/></svg>